# Blender v2.93.1 OBJ File: ''
# www.blender.org
mtllib cube.mtl
o Cube
v 0.869346 0.770281 -0.958966
v 0.770281 0.770281 -1.000000
v 0.770281 0.869346 -0.958966
v 0.875694 0.875694 -0.905236
v 0.770281 0.958966 -0.869346
v 0.770281 1.000000 -0.770281
v 0.869346 0.958966 -0.770281
v 0.875694 0.905236 -0.875694
v 0.958966 0.770281 -0.869346
v 0.905236 0.875694 -0.875694
v 0.958966 0.869346 -0.770281
v 1.000000 0.770281 -0.770281
v 0.869346 -0.958966 -0.770281
v 0.770281 -1.000000 -0.770281
v 0.770281 -0.958966 -0.869346
v 0.875694 -0.905236 -0.875694
v 0.770281 -0.869346 -0.958966
v 0.770281 -0.770281 -1.000000
v 0.869346 -0.770281 -0.958966
v 0.875694 -0.875694 -0.905236
v 0.958966 -0.869346 -0.770281
v 0.905236 -0.875694 -0.875694
v 0.958966 -0.770281 -0.869346
v 1.000000 -0.770281 -0.770281
v 0.958966 0.770281 0.869346
v 1.000000 0.770281 0.770281
v 0.958966 0.869346 0.770281
v 0.905236 0.875694 0.875694
v 0.869346 0.958966 0.770281
v 0.770281 1.000000 0.770281
v 0.770281 0.958966 0.869346
v 0.875694 0.905236 0.875694
v 0.869346 0.770281 0.958966
v 0.875694 0.875694 0.905236
v 0.770281 0.869346 0.958966
v 0.770281 0.770281 1.000000
v 0.958966 -0.869346 0.770281
v 1.000000 -0.770281 0.770281
v 0.958966 -0.770281 0.869346
v 0.905236 -0.875694 0.875694
v 0.869346 -0.770281 0.958966
v 0.770281 -0.770281 1.000000
v 0.770281 -0.869346 0.958966
v 0.875694 -0.875694 0.905236
v 0.869346 -0.958966 0.770281
v 0.875694 -0.905236 0.875694
v 0.770281 -0.958966 0.869346
v 0.770281 -1.000000 0.770281
v -0.770281 0.869346 -0.958966
v -0.770281 0.770281 -1.000000
v -0.869346 0.770281 -0.958966
v -0.875694 0.875694 -0.905236
v -0.958966 0.770281 -0.869346
v -1.000000 0.770281 -0.770281
v -0.958966 0.869346 -0.770281
v -0.905236 0.875694 -0.875694
v -0.770281 0.958966 -0.869346
v -0.875694 0.905236 -0.875694
v -0.869346 0.958966 -0.770281
v -0.770281 1.000000 -0.770281
v -0.958966 -0.869346 -0.770281
v -1.000000 -0.770281 -0.770281
v -0.958966 -0.770281 -0.869346
v -0.905236 -0.875694 -0.875694
v -0.869346 -0.770281 -0.958966
v -0.770281 -0.770281 -1.000000
v -0.770281 -0.869346 -0.958966
v -0.875694 -0.875694 -0.905236
v -0.869346 -0.958966 -0.770281
v -0.875694 -0.905236 -0.875694
v -0.770281 -0.958966 -0.869346
v -0.770281 -1.000000 -0.770281
v -0.958966 0.869346 0.770281
v -1.000000 0.770281 0.770281
v -0.958966 0.770281 0.869346
v -0.905236 0.875694 0.875694
v -0.869346 0.770281 0.958966
v -0.770281 0.770281 1.000000
v -0.770281 0.869346 0.958966
v -0.875694 0.875694 0.905236
v -0.869346 0.958966 0.770281
v -0.875694 0.905236 0.875694
v -0.770281 0.958966 0.869346
v -0.770281 1.000000 0.770281
v -0.869346 -0.958966 0.770281
v -0.770281 -1.000000 0.770281
v -0.770281 -0.958966 0.869346
v -0.875694 -0.905236 0.875694
v -0.770281 -0.869346 0.958966
v -0.770281 -0.770281 1.000000
v -0.869346 -0.770281 0.958966
v -0.875694 -0.875694 0.905236
v -0.958966 -0.869346 0.770281
v -0.905236 -0.875694 0.875694
v -0.958966 -0.770281 0.869346
v -1.000000 -0.770281 0.770281
vt 0.596285 0.761203
vt 0.403715 0.761203
vt 0.403715 0.738798
vt 0.596285 0.738798
vt 0.141332 0.528715
vt 0.141332 0.721285
vt 0.130129 0.721285
vt 0.130129 0.528715
vt 0.384616 0.761846
vt 0.380923 0.765538
vt 0.380923 0.765538
vt 0.363798 0.721285
vt 0.363798 0.528715
vt 0.386203 0.528715
vt 0.386203 0.721285
vt 0.346285 0.516332
vt 0.153715 0.516332
vt 0.153715 0.505129
vt 0.346285 0.505129
vt 0.619871 0.778715
vt 0.619871 0.971285
vt 0.608668 0.971285
vt 0.608668 0.778715
vt 0.153715 0.733668
vt 0.346285 0.733668
vt 0.346285 0.744871
vt 0.153715 0.744871
vt 0.596285 0.261203
vt 0.403715 0.261203
vt 0.403715 0.238798
vt 0.596285 0.238798
vt 0.609462 0.015538
vt 0.609462 0.011845
vt 0.613155 0.015538
vt 0.403715 0.005129
vt 0.596285 0.005129
vt 0.596285 0.016332
vt 0.403715 0.016332
vt 0.390538 0.234462
vt 0.390538 0.238155
vt 0.386845 0.234462
vt 0.153715 0.528715
vt 0.346285 0.528715
vt 0.346285 0.721285
vt 0.153715 0.721285
vt 0.609462 0.484462
vt 0.613155 0.484462
vt 0.609462 0.488155
vt 0.140538 0.734462
vt 0.140538 0.738155
vt 0.136845 0.734462
vt 0.609462 0.734462
vt 0.613155 0.734462
vt 0.609462 0.738155
vt 0.619871 0.028715
vt 0.619871 0.221285
vt 0.608668 0.221285
vt 0.608668 0.028715
vt 0.403715 0.778715
vt 0.596285 0.778715
vt 0.596285 0.971285
vt 0.403715 0.971285
vt 0.653715 0.528715
vt 0.846285 0.528715
vt 0.846285 0.721285
vt 0.653715 0.721285
vt 0.609462 0.244077
vt 0.609462 0.244077
vt 0.613155 0.240384
vt 0.403715 0.028715
vt 0.596285 0.028715
vt 0.596285 0.221285
vt 0.403715 0.221285
vt 0.636203 0.528715
vt 0.636203 0.721285
vt 0.613797 0.721285
vt 0.613798 0.528715
vt 0.359462 0.515538
vt 0.359462 0.511845
vt 0.363155 0.515538
vt 0.619871 0.278715
vt 0.619871 0.471285
vt 0.608668 0.471285
vt 0.608668 0.278715
vt 0.596285 0.483668
vt 0.596285 0.478539
vt 0.603539 0.471285
vt 0.603539 0.478539
vt 0.625000 0.471285
vt 0.625000 0.478539
vt 0.616116 0.478539
vt 0.596285 0.511203
vt 0.603539 0.503693
vt 0.603539 0.521461
vt 0.596285 0.521461
vt 0.358668 0.528715
vt 0.353539 0.528715
vt 0.346285 0.521461
vt 0.353539 0.521461
vt 0.346285 0.500000
vt 0.353539 0.500000
vt 0.353539 0.508884
vt 0.378693 0.521461
vt 0.396461 0.521461
vt 0.396461 0.528715
vt 0.596285 0.728539
vt 0.603539 0.728539
vt 0.603539 0.746307
vt 0.626062 0.766332
vt 0.625000 0.778715
vt 0.625000 0.778715
vt 0.616116 0.771461
vt 0.596285 0.766332
vt 0.603539 0.771461
vt 0.603539 0.778715
vt 0.603539 0.778715
vt 0.396461 0.721285
vt 0.396461 0.728539
vt 0.378693 0.728539
vt 0.358668 0.751062
vt 0.346285 0.750000
vt 0.346285 0.750000
vt 0.353539 0.741116
vt 0.358668 0.721285
vt 0.353539 0.728539
vt 0.346285 0.728539
vt 0.346285 0.728539
vt 0.608668 0.273586
vt 0.596285 0.271461
vt 0.596285 0.271461
vt 0.603539 0.253693
vt 0.596285 0.233668
vt 0.596285 0.228539
vt 0.603539 0.221285
vt 0.603539 0.228539
vt 0.626062 0.233668
vt 0.616116 0.228539
vt 0.625000 0.221285
vt 0.625000 0.221285
vt 0.125000 0.528715
vt 0.125000 0.521461
vt 0.133884 0.521461
vt 0.141332 0.498938
vt 0.153715 0.500000
vt 0.153715 0.500000
vt 0.146461 0.508884
vt 0.146461 0.521461
vt 0.153715 0.521461
vt 0.146461 0.528715
vt 0.596285 0.000000
vt 0.603539 0.000000
vt 0.603539 0.008884
vt 0.622289 0.026297
vt 0.616116 0.021461
vt 0.619871 0.016332
vt 0.625000 0.021461
vt 0.151297 0.747289
vt 0.146461 0.750000
vt 0.141332 0.744871
vt 0.137577 0.741116
vt 0.127711 0.723703
vt 0.133884 0.737423
vt 0.130129 0.733668
vt 0.125000 0.728539
vt 0.596285 0.488797
vt 0.603539 0.496307
vt 0.621307 0.521461
vt 0.628693 0.521461
vt 0.371307 0.521461
vt 0.358668 0.505129
vt 0.369871 0.516332
vt 0.603539 0.753693
vt 0.628693 0.728539
vt 0.621307 0.728539
vt 0.612423 0.771461
vt 0.371307 0.728539
vt 0.396461 0.753693
vt 0.396461 0.746307
vt 0.353539 0.737423
vt 0.612423 0.271461
vt 0.616116 0.271461
vt 0.603539 0.246307
vt 0.612423 0.228539
vt 0.137577 0.521461
vt 0.396461 0.253693
vt 0.396461 0.246307
vt 0.146461 0.512577
vt 0.608668 0.005129
vt 0.125000 0.721285
vt 0.596285 0.528715
vt 0.403715 0.528715
vt 0.403715 0.511203
vt 0.403715 0.471285
vt 0.596285 0.471285
vt 0.403715 0.488798
vt 0.403715 0.000000
vt 0.403715 0.721285
vt 0.596285 0.721285
vt 0.596285 0.278715
vt 0.403715 0.278715
vt 0.625000 0.971285
vt 0.153715 0.750000
vt 0.625000 0.028715
vt 0.625000 0.278715
vn 0.7071 0.0000 0.7071
vn -0.7071 -0.7071 0.0000
vn 0.5774 -0.5774 0.5774
vn 0.7071 -0.7071 0.0000
vn 0.0000 -0.7071 -0.7071
vn 0.0000 0.7071 0.7071
vn 0.0000 -0.7071 0.7071
vn -0.7071 0.0000 -0.7071
vn -0.5774 0.5774 0.5774
vn -0.7071 0.0000 0.7071
vn -0.5774 -0.5774 -0.5774
vn 0.0000 -1.0000 0.0000
vn 0.5774 0.5774 -0.5774
vn -0.5774 -0.5774 0.5774
vn 0.5774 0.5774 0.5774
vn -0.7071 0.7071 0.0000
vn 0.0000 0.0000 1.0000
vn 0.0000 1.0000 0.0000
vn -0.5774 0.5774 -0.5774
vn -1.0000 0.0000 0.0000
vn 0.7071 0.7071 0.0000
vn 0.5774 -0.5774 -0.5774
vn 0.0000 0.7071 -0.7071
vn 0.3793 0.3793 -0.8439
vn 0.3793 0.8439 -0.3793
vn 0.8439 0.3793 -0.3793
vn 0.3793 -0.8439 -0.3793
vn 0.3793 -0.3793 -0.8439
vn 0.8439 -0.3793 -0.3793
vn 0.8439 0.3793 0.3793
vn 0.3793 0.8439 0.3793
vn 0.3793 0.3793 0.8439
vn 0.8439 -0.3793 0.3793
vn 0.3793 -0.3793 0.8439
vn 0.3793 -0.8439 0.3793
vn -0.3793 0.3793 -0.8439
vn -0.8439 0.3793 -0.3793
vn -0.3793 0.8439 -0.3793
vn -0.8439 -0.3793 -0.3793
vn -0.3793 -0.3793 -0.8439
vn -0.3793 -0.8439 -0.3793
vn -0.8439 0.3793 0.3793
vn -0.3793 0.3793 0.8439
vn -0.3793 0.8439 0.3793
vn -0.3793 -0.8439 0.3793
vn -0.3793 -0.3793 0.8439
vn -0.8439 -0.3793 0.3793
vn 0.6739 0.3029 -0.6739
vn 0.3029 0.6739 -0.6739
vn 0.6739 0.6739 -0.3029
vn 0.6739 -0.6739 -0.3029
vn 0.3029 -0.6739 -0.6739
vn 0.6739 -0.3029 -0.6739
vn 0.6739 0.3029 0.6739
vn 0.6739 0.6739 0.3029
vn 0.3029 0.6739 0.6739
vn 0.6739 -0.6739 0.3029
vn 0.6739 -0.3029 0.6739
vn 0.3029 -0.6739 0.6739
vn -0.3029 0.6739 -0.6739
vn -0.6739 0.3029 -0.6739
vn -0.6739 0.6739 -0.3029
vn -0.6739 -0.6739 -0.3029
vn -0.6739 -0.3029 -0.6739
vn -0.3029 -0.6739 -0.6739
vn -0.6739 0.6739 0.3029
vn -0.6739 0.3029 0.6739
vn -0.3029 0.6739 0.6739
vn -0.6739 -0.6739 0.3029
vn -0.3029 -0.6739 0.6739
vn -0.6739 -0.3029 0.6739
vn -0.3827 -0.9239 0.0000
vn -0.9239 -0.3827 0.0000
vn 0.0000 -0.9239 -0.3827
vn 0.0000 -0.3827 -0.9239
vn 0.9239 0.0000 -0.3827
vn 0.3827 0.0000 -0.9239
vn -0.3827 0.0000 0.9239
vn -0.9239 0.0000 0.3827
vn 0.3827 0.0000 0.9239
vn 0.9239 0.0000 0.3827
vn -0.3827 0.0000 -0.9239
vn -0.9239 0.0000 -0.3827
vn 0.0000 0.9239 0.3827
vn 0.0000 0.3827 0.9239
vn 0.3827 0.9239 0.0000
vn 0.9239 0.3827 0.0000
vn 0.0000 -0.9239 0.3827
vn 0.0000 -0.3827 0.9239
vn -0.3827 0.9239 0.0000
vn -0.9239 0.3827 0.0000
vn 0.0000 0.9239 -0.3827
vn 0.0000 0.3827 -0.9239
vn 0.3827 -0.9239 0.0000
vn 0.9239 -0.3827 0.0000
vn 0.7071 0.0000 -0.7071
vn 1.0000 0.0000 0.0000
vn 0.0000 0.0000 -1.0000
g Cube_Cube_Material
usemtl Material
s off
f 33/1/1 41/2/1 39/3/1 25/4/1
f 69/5/2 85/6/2 93/7/2 61/8/2
f 40/9/3 44/10/3 46/11/3
f 45/12/4 13/13/4 21/14/4 37/15/4
f 15/16/5 71/17/5 67/18/5 17/19/5
f 31/20/6 83/21/6 79/22/6 35/23/6
f 87/24/7 47/25/7 43/26/7 89/27/7
f 51/28/8 65/29/8 63/30/8 53/31/8
f 76/32/9 80/33/9 82/34/9
f 91/35/10 77/36/10 75/37/10 95/38/10
f 64/39/11 68/40/11 70/41/11
f 72/42/12 14/43/12 48/44/12 86/45/12
f 4/46/13 8/47/13 10/48/13
f 88/49/14 92/50/14 94/51/14
f 28/52/15 32/53/15 34/54/15
f 81/55/16 59/56/16 55/57/16 73/58/16
f 42/59/17 36/60/17 78/61/17 90/62/17
f 6/63/18 60/64/18 84/65/18 30/66/18
f 52/67/19 56/68/19 58/69/19
f 96/70/20 74/71/20 54/72/20 62/73/20
f 7/74/21 29/75/21 27/76/21 11/77/21
f 16/78/22 20/79/22 22/80/22
f 57/81/23 5/82/23 3/83/23 49/84/23
f 1/85/24 2/86/24 3/87/24 4/88/24
f 5/82/25 6/89/25 7/90/25 8/91/25
f 9/92/26 10/93/26 11/94/26 12/95/26
f 13/96/27 14/97/27 15/98/27 16/99/27
f 17/19/28 18/100/28 19/101/28 20/102/28
f 21/14/29 22/103/29 23/104/29 24/105/29
f 25/4/30 26/106/30 27/107/30 28/108/30
f 29/109/31 30/110/31 31/111/31 32/112/31
f 33/113/32 34/114/32 35/115/32 36/116/32
f 37/15/33 38/117/33 39/118/33 40/119/33
f 41/120/34 42/121/34 43/122/34 44/123/34
f 45/124/35 46/125/35 47/126/35 48/127/35
f 49/128/36 50/129/36 51/130/36 52/131/36
f 53/132/37 54/133/37 55/134/37 56/135/37
f 57/136/38 58/137/38 59/138/38 60/139/38
f 61/8/39 62/140/39 63/141/39 64/142/39
f 65/143/40 66/144/40 67/145/40 68/146/40
f 69/5/41 70/147/41 71/148/41 72/149/41
f 73/58/42 74/71/42 75/37/42 76/32/42
f 77/36/43 78/150/43 79/151/43 80/152/43
f 81/153/44 82/154/44 83/155/44 84/156/44
f 85/6/45 86/45/45 87/24/45 88/49/45
f 89/157/46 90/158/46 91/159/46 92/160/46
f 93/161/47 94/162/47 95/163/47 96/164/47
f 9/92/48 1/165/48 4/166/48 10/93/48
f 3/83/49 5/82/49 8/47/49 4/46/49
f 7/74/50 11/77/50 10/167/50 8/168/50
f 21/14/51 13/13/51 16/169/51 22/103/51
f 15/16/52 17/19/52 20/79/52 16/78/52
f 19/170/53 23/171/53 22/80/53 20/79/53
f 33/1/54 25/4/54 28/108/54 34/172/54
f 27/76/55 29/75/55 32/173/55 28/174/55
f 31/20/56 35/23/56 34/175/56 32/112/56
f 45/12/57 37/15/57 40/119/57 46/176/57
f 39/3/58 41/2/58 44/177/58 40/178/58
f 43/26/59 47/25/59 46/179/59 44/123/59
f 57/81/60 49/84/60 52/180/60 58/181/60
f 51/28/61 53/31/61 56/182/61 52/131/61
f 55/57/62 59/56/62 58/137/62 56/183/62
f 69/5/63 61/8/63 64/142/63 70/184/63
f 63/30/64 65/29/64 68/185/64 64/186/64
f 67/18/65 71/17/65 70/187/65 68/146/65
f 81/55/66 73/58/66 76/32/66 82/34/66
f 75/37/67 77/36/67 80/33/67 76/32/67
f 79/188/68 83/155/68 82/34/68 80/33/68
f 93/7/69 85/6/69 88/49/69 94/51/69
f 87/24/70 89/27/70 92/50/70 88/49/70
f 91/159/71 95/163/71 94/51/71 92/50/71
f 72/42/72 86/45/72 85/6/72 69/5/72
f 96/189/73 62/140/73 61/8/73 93/7/73
f 14/43/74 72/42/74 71/17/74 15/16/74
f 66/144/75 18/100/75 17/19/75 67/18/75
f 12/190/76 24/191/76 23/192/76 9/92/76
f 18/193/77 2/194/77 1/165/77 19/195/77
f 90/196/78 78/150/78 77/36/78 91/35/78
f 74/71/79 96/70/79 95/38/79 75/37/79
f 36/60/80 42/59/80 41/2/80 33/1/80
f 38/197/81 26/198/81 25/4/81 39/3/81
f 50/199/82 66/200/82 65/29/82 51/28/82
f 62/73/83 54/72/83 53/31/83 63/30/83
f 30/110/84 84/201/84 83/21/84 31/20/84
f 78/61/85 36/60/85 35/23/85 79/22/85
f 6/63/86 30/66/86 29/75/86 7/74/86
f 26/198/87 12/190/87 11/77/87 27/76/87
f 86/45/88 48/44/88 47/25/88 87/24/88
f 42/121/89 90/202/89 89/27/89 43/26/89
f 84/203/90 60/139/90 59/56/90 81/55/90
f 54/72/91 74/71/91 73/58/91 55/57/91
f 60/204/92 6/89/92 5/82/92 57/81/92
f 2/194/93 50/199/93 49/84/93 3/83/93
f 48/44/94 14/43/94 13/13/94 45/12/94
f 24/191/95 38/197/95 37/15/95 21/14/95
f 9/92/96 23/192/96 19/195/96 1/165/96
g Cube_Cube_Material.001
usemtl Material.001
f 24/191/97 12/190/97 26/198/97 38/197/97
g Cube_Cube_Material.002
usemtl Material.002
f 66/200/98 50/199/98 2/194/98 18/193/98
